<?xml version="1.0" encoding="UTF-8"?>
<svg id="Layer_2" data-name="Layer 2" xmlns="http://www.w3.org/2000/svg" viewBox="0 0 236.26 81.95">
  <defs>
    <style>
      .cls-1, .cls-2, .cls-3 {
        fill: #6fc8ba;
      }

      .cls-2 {
        opacity: .5;
      }

      .cls-3 {
        opacity: .75;
      }

      .cls-4 {
        fill: #fff;
      }
    </style>
  </defs>
  <g id="Layer_1-2" data-name="Layer 1">
    <g>
      <rect class="cls-4" x="77.16" y="-77.16" width="81.95" height="236.26" rx="16.03" ry="16.03" transform="translate(77.16 159.1) rotate(-90)"/>
      <polygon class="cls-1" points="37.98 19.66 40.61 36.1 22.33 22.56 17.06 29.46 33.09 41.34 17.28 53.53 22.68 60.33 40.7 46.43 38.38 62.92 47.07 64.1 50.29 41.17 46.64 18.31 37.98 19.66"/>
      <polygon class="cls-1" points="56.52 41.24 52.7 17.29 50.95 17.56 54.73 41.24 51.15 64.68 52.91 64.91 56.52 41.24"/>
      <polygon class="cls-3" points="59.23 16.4 57.49 16.67 61.4 41.24 57.71 65.44 59.46 65.67 63.19 41.24 59.23 16.4"/>
      <polygon class="cls-2" points="65.76 15.51 64.02 15.78 68.08 41.24 64.27 66.21 66.02 66.44 69.86 41.24 65.76 15.51"/>
      <g>
        <path class="cls-1" d="M86.85,36.64c-.18,0-.34-.06-.47-.19s-.19-.28-.19-.47v-17.94c0-.2.06-.37.19-.5.13-.13.29-.19.47-.19h7.38c1.43,0,2.68.23,3.75.68,1.06.45,1.89,1.13,2.48,2.04.59.91.88,2.04.88,3.4s-.29,2.51-.88,3.4c-.59.89-1.42,1.56-2.48,2-1.07.44-2.32.66-3.75.66h-4.11v6.45c0,.18-.06.34-.18.47-.12.13-.28.19-.48.19h-2.62ZM90.07,26.47h4.02c1.07,0,1.88-.25,2.45-.76.57-.5.85-1.25.85-2.25,0-.92-.27-1.66-.8-2.22-.53-.56-1.37-.84-2.51-.84h-4.02v6.06Z"/>
        <path class="cls-1" d="M112.23,36.91c-1.63,0-3.04-.27-4.22-.81-1.18-.54-2.09-1.38-2.76-2.51-.66-1.13-1.02-2.54-1.07-4.23-.02-.79-.03-1.57-.03-2.34s0-1.56.03-2.37c.05-1.67.42-3.07,1.1-4.19.68-1.12,1.61-1.97,2.8-2.54,1.18-.57,2.57-.85,4.15-.85s2.97.29,4.16.85,2.13,1.41,2.81,2.54c.68,1.12,1.05,2.52,1.1,4.19.04.81.05,1.6.05,2.37s-.02,1.55-.05,2.34c-.06,1.69-.41,3.1-1.08,4.23s-1.58,1.97-2.77,2.51c-1.18.54-2.59.81-4.23.81ZM112.23,33.74c1.19,0,2.17-.35,2.92-1.06s1.16-1.86,1.21-3.46c.04-.81.05-1.56.05-2.25s-.02-1.43-.05-2.22c-.04-1.06-.23-1.93-.59-2.6-.36-.67-.84-1.16-1.45-1.46-.61-.3-1.3-.46-2.09-.46s-1.46.15-2.07.46c-.61.3-1.09.79-1.45,1.46-.36.67-.56,1.54-.59,2.6-.02.79-.03,1.53-.03,2.22s0,1.44.03,2.25c.05,1.6.46,2.75,1.21,3.46.75.71,1.72,1.06,2.89,1.06Z"/>
        <path class="cls-1" d="M127.38,36.64c-.28,0-.49-.08-.65-.23-.16-.16-.26-.35-.32-.59l-3.28-17.66c0-.05,0-.1-.01-.14,0-.04-.01-.06-.01-.08,0-.17.06-.3.18-.41.12-.11.25-.17.4-.17h2.42c.46,0,.72.18.77.55l2.29,12.48,2.48-8.07c.06-.15.15-.3.29-.45s.34-.23.62-.23h1.49c.29,0,.5.08.63.23s.21.31.25.45l2.51,8.05,2.29-12.45c.05-.37.31-.55.77-.55h2.42c.15,0,.28.06.39.17.11.11.17.25.17.41v.08s0,.08-.03.14l-3.28,17.66c-.04.24-.14.44-.3.59s-.39.23-.66.23h-1.85c-.28,0-.49-.07-.65-.22-.16-.15-.26-.3-.32-.47l-3.09-9.2-3.09,9.2c-.07.17-.18.32-.33.47s-.37.22-.66.22h-1.85Z"/>
        <path class="cls-1" d="M147.83,36.64c-.18,0-.34-.06-.47-.19s-.19-.28-.19-.47v-17.94c0-.2.06-.37.19-.5.13-.13.29-.19.47-.19h12.12c.2,0,.37.06.5.19.13.13.19.29.19.5v1.82c0,.18-.06.34-.19.47s-.29.19-.5.19h-9.07v4.88h8.46c.2,0,.37.06.5.18.13.12.19.28.19.48v1.71c0,.2-.06.36-.19.48-.13.12-.29.18-.5.18h-8.46v5.04h9.29c.2,0,.37.06.5.19.13.13.19.29.19.5v1.82c0,.18-.06.34-.19.47-.13.13-.29.19-.5.19h-12.34Z"/>
        <path class="cls-1" d="M165.44,36.64c-.18,0-.34-.06-.47-.19s-.19-.28-.19-.47v-17.94c0-.2.06-.37.19-.5.13-.13.29-.19.47-.19h7.14c2.22,0,3.98.51,5.26,1.54,1.29,1.03,1.93,2.53,1.93,4.49,0,1.36-.34,2.49-1.01,3.39-.67.9-1.57,1.55-2.69,1.96l4.02,7.03c.06.11.08.21.08.3,0,.17-.06.3-.18.41-.12.11-.25.17-.4.17h-2.51c-.31,0-.55-.08-.72-.25s-.29-.33-.39-.5l-3.55-6.53h-3.83v6.61c0,.18-.06.34-.18.47-.12.13-.28.19-.48.19h-2.51ZM168.61,26.25h3.89c1.12,0,1.96-.25,2.51-.76.55-.5.83-1.22.83-2.14s-.27-1.64-.81-2.16c-.54-.52-1.38-.79-2.52-.79h-3.89v5.84Z"/>
        <path class="cls-1" d="M184.45,36.64c-.18,0-.34-.06-.47-.19s-.19-.28-.19-.47v-17.94c0-.2.06-.37.19-.5.13-.13.29-.19.47-.19h12.12c.2,0,.37.06.5.19.13.13.19.29.19.5v1.82c0,.18-.06.34-.19.47s-.29.19-.5.19h-9.07v4.88h8.46c.2,0,.37.06.5.18.13.12.19.28.19.48v1.71c0,.2-.06.36-.19.48-.13.12-.29.18-.5.18h-8.46v5.04h9.29c.2,0,.37.06.5.19.13.13.19.29.19.5v1.82c0,.18-.06.34-.19.47-.13.13-.29.19-.5.19h-12.34Z"/>
        <path class="cls-1" d="M202.06,36.64c-.18,0-.34-.06-.47-.19s-.19-.28-.19-.47v-17.94c0-.2.06-.37.19-.5.13-.13.29-.19.47-.19h6.72c1.86,0,3.38.29,4.59.85s2.11,1.42,2.73,2.54c.62,1.12.93,2.49.95,4.11.04.81.05,1.53.05,2.15s-.02,1.33-.05,2.12c-.04,1.71-.35,3.12-.94,4.23-.59,1.11-1.47,1.94-2.66,2.48-1.19.54-2.7.81-4.53.81h-6.86ZM205.23,33.47h3.55c1.03,0,1.86-.15,2.51-.44.64-.29,1.12-.77,1.42-1.42.3-.65.46-1.51.48-2.58.02-.55.03-1.03.04-1.45,0-.41,0-.83,0-1.24,0-.41-.02-.89-.04-1.42-.04-1.51-.41-2.62-1.13-3.33s-1.86-1.08-3.42-1.08h-3.42v12.95Z"/>
        <path class="cls-1" d="M86.85,60.67c-.18,0-.34-.06-.47-.19s-.19-.28-.19-.47v-17.94c0-.2.06-.37.19-.5.13-.13.29-.19.47-.19h7.99c1.49,0,2.7.23,3.64.68.94.45,1.63,1.07,2.08,1.86.45.79.67,1.71.67,2.76,0,.7-.12,1.31-.37,1.83s-.55.95-.91,1.28c-.36.33-.71.59-1.06.77.72.33,1.35.88,1.9,1.65.55.77.83,1.69.83,2.76s-.25,2.08-.74,2.95c-.5.86-1.23,1.54-2.2,2.03-.97.49-2.18.73-3.61.73h-8.21ZM90.02,49.29h4.33c.97,0,1.7-.23,2.19-.7.49-.47.73-1.08.73-1.83s-.24-1.37-.73-1.8c-.49-.43-1.22-.65-2.19-.65h-4.33v4.99ZM90.02,57.75h4.6c.99,0,1.75-.27,2.26-.81.51-.54.77-1.2.77-1.97s-.26-1.48-.79-2.01c-.52-.53-1.27-.8-2.25-.8h-4.6v5.59Z"/>
        <path class="cls-1" d="M110.69,60.67c-.18,0-.34-.06-.47-.19-.13-.13-.19-.28-.19-.47v-6.23l-6.5-11.52s-.04-.08-.06-.14-.03-.11-.03-.17c0-.17.05-.3.17-.41.11-.11.24-.17.39-.17h2.45c.22,0,.4.06.54.17.14.11.23.23.29.36l4.68,8.02,4.66-8.02c.07-.13.18-.25.32-.36.14-.11.32-.17.54-.17h2.42c.17,0,.3.06.41.17.11.11.17.25.17.41,0,.05,0,.11-.01.17,0,.05-.03.1-.07.14l-6.5,11.52v6.23c0,.18-.06.34-.19.47s-.29.19-.5.19h-2.51Z"/>
        <path class="cls-1" d="M130.36,60.67c-.18,0-.34-.06-.47-.19s-.19-.28-.19-.47v-17.94c0-.2.06-.37.19-.5.13-.13.29-.19.47-.19h2.42c.2,0,.37.06.5.19.13.13.19.29.19.5v6.45l6.23-6.64c.07-.09.2-.2.37-.32.17-.12.41-.18.7-.18h2.73c.15,0,.28.06.4.17.12.11.18.25.18.41,0,.13-.04.24-.11.33l-7.58,8.32,8.1,9.12c.09.11.14.23.14.36,0,.17-.06.3-.18.41-.12.11-.25.17-.4.17h-2.84c-.31,0-.56-.07-.73-.21-.17-.14-.29-.23-.34-.29l-6.67-7.3v7.14c0,.18-.07.34-.19.47s-.29.19-.5.19h-2.42Z"/>
        <path class="cls-1" d="M146.4,60.67c-.15,0-.28-.06-.4-.17-.12-.11-.18-.25-.18-.41,0-.07.02-.16.05-.25l6.64-17.77c.05-.18.16-.34.32-.48s.37-.21.65-.21h3c.28,0,.49.07.63.21.15.14.26.3.33.48l6.64,17.77c.02.09.03.17.03.25,0,.17-.05.3-.17.41-.11.11-.24.17-.39.17h-2.4c-.26,0-.45-.06-.57-.18-.12-.12-.2-.23-.23-.34l-1.29-3.36h-8.18l-1.29,3.36c-.04.11-.12.22-.23.34s-.31.18-.57.18h-2.4ZM151.85,53.61h6.25l-3.14-8.51-3.11,8.51Z"/>
        <path class="cls-1" d="M173.57,60.94c-1.71,0-3.14-.25-4.29-.76-1.15-.5-2.02-1.17-2.62-1.98-.6-.82-.91-1.68-.95-2.58,0-.17.05-.3.17-.41s.25-.17.41-.17h2.45c.24,0,.42.05.54.15.12.1.22.22.32.37.11.35.32.69.63,1.03s.74.62,1.28.84c.54.22,1.23.33,2.05.33,1.32,0,2.31-.22,2.96-.66.65-.44.98-1.04.98-1.79,0-.53-.17-.96-.52-1.28-.35-.32-.89-.62-1.61-.88-.73-.27-1.69-.55-2.88-.84-1.38-.33-2.53-.73-3.46-1.2-.93-.47-1.63-1.06-2.09-1.78-.47-.72-.7-1.63-.7-2.73s.29-2.01.87-2.84c.58-.83,1.41-1.48,2.48-1.96,1.08-.48,2.36-.72,3.84-.72,1.19,0,2.25.16,3.17.48.92.32,1.68.74,2.29,1.27.61.52,1.07,1.08,1.39,1.68.32.6.49,1.18.51,1.75,0,.15-.05.28-.15.4s-.24.18-.43.18h-2.56c-.15,0-.29-.04-.44-.11-.15-.07-.27-.21-.36-.41-.11-.57-.47-1.06-1.07-1.46s-1.39-.61-2.34-.61-1.79.18-2.4.55c-.61.37-.91.94-.91,1.71,0,.51.15.94.46,1.28s.79.64,1.46.9c.67.26,1.56.53,2.66.83,1.56.35,2.84.75,3.83,1.21.99.46,1.72,1.04,2.18,1.75.46.71.69,1.6.69,2.69,0,1.21-.33,2.25-.98,3.1-.65.85-1.57,1.51-2.74,1.97-1.18.46-2.54.69-4.11.69Z"/>
        <path class="cls-1" d="M185.69,60.67c-.18,0-.34-.06-.47-.19s-.19-.28-.19-.47v-17.94c0-.2.06-.37.19-.5.13-.13.29-.19.47-.19h7.38c1.43,0,2.68.23,3.75.68,1.06.45,1.89,1.13,2.48,2.04.59.91.88,2.04.88,3.4s-.29,2.51-.88,3.4c-.59.89-1.42,1.56-2.48,2-1.07.44-2.32.66-3.75.66h-4.11v6.45c0,.18-.06.34-.18.47-.12.13-.28.19-.48.19h-2.62ZM188.91,50.5h4.02c1.07,0,1.88-.25,2.45-.76.57-.5.85-1.25.85-2.25,0-.92-.27-1.66-.8-2.22-.53-.56-1.37-.84-2.51-.84h-4.02v6.06Z"/>
        <path class="cls-1" d="M201.26,60.67c-.15,0-.28-.06-.4-.17-.12-.11-.18-.25-.18-.41,0-.07.02-.16.05-.25l6.64-17.77c.05-.18.16-.34.32-.48s.37-.21.65-.21h3c.28,0,.49.07.63.21.15.14.26.3.33.48l6.64,17.77c.02.09.03.17.03.25,0,.17-.05.3-.17.41-.11.11-.24.17-.39.17h-2.4c-.26,0-.45-.06-.57-.18-.12-.12-.2-.23-.23-.34l-1.29-3.36h-8.18l-1.29,3.36c-.04.11-.12.22-.23.34s-.31.18-.57.18h-2.4ZM206.72,53.61h6.25l-3.14-8.51-3.11,8.51Z"/>
      </g>
    </g>
  </g>
</svg>